<svg width="36" height="36" viewBox="0 0 36 36" fill="none" xmlns="http://www.w3.org/2000/svg">
<path d="M30.25 25.25V23.375C30.1523 22.5151 29.7416 21.7213 29.096 21.1449C28.4505 20.5686 27.6154 20.25 26.75 20.25C25.8846 20.25 25.0495 20.5686 24.404 21.1449C23.7584 21.7213 23.3477 22.5151 23.25 23.375V25.25C22.8608 25.2763 22.4944 25.4428 22.2186 25.7186C21.9428 25.9944 21.7763 26.3608 21.75 26.75V31.125C21.7517 31.5343 21.9066 31.9282 22.1842 32.229C22.4619 32.5297 22.8421 32.7156 23.25 32.75H30.125C30.5343 32.7483 30.9282 32.5934 31.229 32.3158C31.5297 32.0381 31.7156 31.6579 31.75 31.25V26.875C31.7483 26.4657 31.5934 26.0718 31.3158 25.771C31.0381 25.4703 30.6579 25.2844 30.25 25.25ZM24.875 23.375C24.8867 23.1435 24.945 22.9168 25.0466 22.7084C25.1481 22.5001 25.2908 22.3144 25.4659 22.1626C25.6411 22.0108 25.8451 21.896 26.0658 21.8251C26.2865 21.7542 26.5192 21.7286 26.75 21.75C26.9808 21.7286 27.2135 21.7542 27.4342 21.8251C27.6549 21.896 27.8589 22.0108 28.0341 22.1626C28.2092 22.3144 28.3519 22.5001 28.4534 22.7084C28.555 22.9168 28.6133 23.1435 28.625 23.375V25.25H24.875V23.375Z" fill="#8686C3"/>
<path d="M33 17.75V6.5C33 5.83696 32.7366 5.20107 32.2678 4.73223C31.7989 4.26339 31.163 4 30.5 4H5.5C4.83696 4 4.20107 4.26339 3.73223 4.73223C3.26339 5.20107 3 5.83696 3 6.5L3 29C3 29.663 3.26339 30.2989 3.73223 30.7678C4.20107 31.2366 4.83696 31.5 5.5 31.5H19.25V29H5.5V6.5H30.5V17.75" fill="#8686C3"/>
<path d="M10.5 9H8V11.5H10.5V9ZM28 9H13V11.5H28V9ZM19.25 24H13V26.5H19.25V24ZM10.5 24H8V26.5H10.5V24ZM15.5 14H13V16.5H15.5V14ZM28 14H18V16.5H28V14ZM21.51 19H18V21.5H20.75V20.875C20.7632 20.1776 21.0339 19.5097 21.51 19ZM15.5 19H13V21.5H15.5V19Z" fill="#8686C3"/>
</svg>
