<svg width="36" height="36" viewBox="0 0 36 36" fill="none" xmlns="http://www.w3.org/2000/svg">
<path d="M13.0379 18.3976V11.2501C13.0379 10.9071 13.1544 10.6196 13.3874 10.3876C13.6194 10.1546 13.9069 10.0381 14.2499 10.0381H14.5949C14.8409 10.0381 15.0469 10.1211 15.2129 10.2871C15.3789 10.4531 15.4619 10.6586 15.4619 10.9036V18.3976L15.4169 18.3556C15.0919 18.0166 14.7029 17.8471 14.2499 17.8471C13.7959 17.8471 13.4064 18.0166 13.0814 18.3556L13.0379 18.3976ZM19.5569 21.7441V5.25009C19.5569 4.90709 19.6734 4.61959 19.9064 4.38759C20.1384 4.15459 20.4259 4.03809 20.7689 4.03809H21.1139C21.3599 4.03809 21.5659 4.12109 21.7319 4.28709C21.8979 4.45309 21.9809 4.65859 21.9809 4.90359V19.3216L19.5569 21.7441ZM6.46191 24.9571V17.2501C6.46191 16.9071 6.57791 16.6196 6.80991 16.3876C7.04191 16.1546 7.32941 16.0381 7.67241 16.0381H8.01891C8.26391 16.0381 8.46941 16.1211 8.63541 16.2871C8.80141 16.4531 8.88441 16.6586 8.88441 16.9036V22.5346L6.46191 24.9571ZM8.08941 30.8251C7.75441 30.8251 7.52291 30.6726 7.39491 30.3676C7.26691 30.0626 7.32491 29.7881 7.56891 29.5441L13.4309 23.6821C13.6479 23.4651 13.9154 23.3441 14.2334 23.3191C14.5524 23.2941 14.8349 23.3901 15.0809 23.6071L19.5569 27.4561L29.6879 17.3251H26.9999C26.7869 17.3251 26.6089 17.2531 26.4659 17.1091C26.3219 16.9651 26.2499 16.7866 26.2499 16.5736C26.2499 16.3606 26.3219 16.1826 26.4659 16.0396C26.6099 15.8966 26.7879 15.8251 26.9999 15.8251H31.0379C31.3819 15.8251 31.6699 15.9411 31.9019 16.1731C32.1339 16.4051 32.2499 16.6931 32.2499 17.0371V21.0751C32.2499 21.2881 32.1779 21.4661 32.0339 21.6091C31.8899 21.7531 31.7114 21.8251 31.4984 21.8251C31.2854 21.8251 31.1074 21.7531 30.9644 21.6091C30.8214 21.4661 30.7499 21.2881 30.7499 21.0751V18.3871L20.3939 28.7431C20.1769 28.9601 19.9094 29.0811 19.5914 29.1061C19.2724 29.1311 18.9899 29.0351 18.7439 28.8181L14.2679 24.9691L8.63091 30.6061C8.56591 30.6661 8.48541 30.7176 8.38941 30.7606C8.29341 30.8036 8.19341 30.8251 8.08941 30.8251Z" fill="#8686C3"/>
</svg>
