<svg width="36" height="36" viewBox="0 0 36 36" fill="none" xmlns="http://www.w3.org/2000/svg">
<path d="M17.9999 33.0374C17.5999 33.0374 17.2184 32.9624 16.8554 32.8124C16.4924 32.6624 16.1614 32.4499 15.8624 32.1749L3.8249 20.1374C3.5499 19.8374 3.3374 19.5059 3.1874 19.1429C3.0374 18.7799 2.9624 18.3989 2.9624 17.9999C2.9624 17.5999 3.0374 17.2124 3.1874 16.8374C3.3374 16.4624 3.5499 16.1374 3.8249 15.8624L15.8624 3.82491C16.1624 3.52491 16.4939 3.30591 16.8569 3.16791C17.2199 3.02991 17.6009 2.96141 17.9999 2.96241C18.3999 2.96241 18.7874 3.03141 19.1624 3.16941C19.5374 3.30741 19.8624 3.52591 20.1374 3.82491L32.1749 15.8624C32.4749 16.1374 32.6939 16.4624 32.8319 16.8374C32.9699 17.2124 33.0384 17.5999 33.0374 17.9999C33.0374 18.3999 32.9689 18.7814 32.8319 19.1444C32.6949 19.5074 32.4759 19.8384 32.1749 20.1374L20.1374 32.1749C19.8624 32.4499 19.5374 32.6624 19.1624 32.8124C18.7874 32.9624 18.3999 33.0374 17.9999 33.0374ZM17.9999 30.0374L30.0374 17.9999L17.9999 5.96241L5.9624 17.9999L17.9999 30.0374ZM16.4999 19.4999H19.4999V10.4999H16.4999V19.4999ZM17.9999 23.9999C18.4249 23.9999 18.7814 23.8559 19.0694 23.5679C19.3574 23.2799 19.5009 22.9239 19.4999 22.4999C19.4999 22.0749 19.3559 21.7184 19.0679 21.4304C18.7799 21.1424 18.4239 20.9989 17.9999 20.9999C17.5749 20.9999 17.2184 21.1439 16.9304 21.4319C16.6424 21.7199 16.4989 22.0759 16.4999 22.4999C16.4999 22.9249 16.6439 23.2814 16.9319 23.5694C17.2199 23.8574 17.5759 24.0009 17.9999 23.9999Z" fill="#8686C3"/>
</svg>
