<svg width="36" height="36" viewBox="0 0 36 36" fill="none" xmlns="http://www.w3.org/2000/svg">
<path d="M15 34.5C14.175 34.5 13.4685 34.206 12.8805 33.618C12.2925 33.03 11.999 32.324 12 31.5V27C11.175 27 10.4685 26.706 9.8805 26.118C9.2925 25.53 8.999 24.824 9 24V4.5C9 3.675 9.294 2.9685 9.882 2.3805C10.47 1.7925 11.176 1.499 12 1.5H24C24.825 1.5 25.5315 1.794 26.1195 2.382C26.7075 2.97 27.001 3.676 27 4.5V24C27 24.825 26.706 25.5315 26.118 26.1195C25.53 26.7075 24.824 27.001 24 27V31.5C24 32.325 23.706 33.0315 23.118 33.6195C22.53 34.2075 21.824 34.501 21 34.5H15ZM18 18.75C19.25 18.75 20.3125 18.3125 21.1875 17.4375C22.0625 16.5625 22.5 15.5 22.5 14.25C22.5 13 22.0625 11.9375 21.1875 11.0625C20.3125 10.1875 19.25 9.75 18 9.75C16.75 9.75 15.6875 10.1875 14.8125 11.0625C13.9375 11.9375 13.5 13 13.5 14.25C13.5 15.5 13.9375 16.5625 14.8125 17.4375C15.6875 18.3125 16.75 18.75 18 18.75ZM15 31.5H21V27H15V31.5ZM12 24H24V4.5H12V24ZM18 15.75C17.575 15.75 17.2185 15.606 16.9305 15.318C16.6425 15.03 16.499 14.674 16.5 14.25C16.5 13.825 16.644 13.4685 16.932 13.1805C17.22 12.8925 17.576 12.749 18 12.75C18.425 12.75 18.7815 12.894 19.0695 13.182C19.3575 13.47 19.501 13.826 19.5 14.25C19.5 14.675 19.356 15.0315 19.068 15.3195C18.78 15.6075 18.424 15.751 18 15.75Z" fill="#8686C3"/>
</svg>
