<svg width="20" height="20" viewBox="0 0 20 20" fill="none" xmlns="http://www.w3.org/2000/svg">
<path d="M8.33366 16.6667H3.33366C2.89163 16.6667 2.46771 16.4911 2.15515 16.1785C1.84259 15.866 1.66699 15.442 1.66699 15V4.16669C1.66699 3.72466 1.84259 3.30074 2.15515 2.98817C2.46771 2.67561 2.89163 2.50002 3.33366 2.50002H6.58366C6.8624 2.49729 7.13737 2.56451 7.38341 2.69554C7.62945 2.82656 7.83869 3.01721 7.99199 3.25002L8.66699 4.25002C8.81875 4.48046 9.02535 4.66962 9.26824 4.80052C9.51114 4.93142 9.78273 4.99997 10.0587 5.00002H16.667C17.109 5.00002 17.5329 5.17561 17.8455 5.48817C18.1581 5.80074 18.3337 6.22466 18.3337 6.66669V8.33335M18.3337 11.6667L14.5837 15.4167M17.5003 12.5L18.3337 13.3334M15.0003 16.6667C15.0003 17.5872 14.2541 18.3334 13.3337 18.3334C12.4132 18.3334 11.667 17.5872 11.667 16.6667C11.667 15.7462 12.4132 15 13.3337 15C14.2541 15 15.0003 15.7462 15.0003 16.6667Z" stroke="#8D8D8D" stroke-width="2" stroke-linecap="round" stroke-linejoin="round"/>
</svg>
