<svg width="58" height="58" viewBox="0 0 58 58" fill="none" xmlns="http://www.w3.org/2000/svg">
<circle opacity="0.5" cx="29" cy="29" r="29" fill="#EFEDFF"/>
<path d="M29 42.5C36.4558 42.5 42.5 36.4558 42.5 29C42.5 21.5442 36.4558 15.5 29 15.5C21.5442 15.5 15.5 21.5442 15.5 29C15.5 36.4558 21.5442 42.5 29 42.5Z" stroke="#8686C3" stroke-width="2" stroke-miterlimit="10" stroke-linecap="round"/>
<path d="M29 33.5C31.4853 33.5 33.5 31.4853 33.5 29C33.5 26.5147 31.4853 24.5 29 24.5C26.5147 24.5 24.5 26.5147 24.5 29C24.5 31.4853 26.5147 33.5 29 33.5Z" stroke="#8686C3" stroke-width="2" stroke-miterlimit="10"/>
<path d="M26.7501 24.5L23.0236 16.9766M31.2501 24.5L34.9767 16.9766M34.031 28.9866L42.427 28.9958M32.0299 33.017L37.11 39.7009M23.9693 28.9866L15.5732 28.9958M25.9704 33.017L20.8903 39.7009" stroke="#8686C3" stroke-width="2" stroke-miterlimit="10" stroke-linecap="round"/>
</svg>
