<svg width="36" height="36" viewBox="0 0 36 36" fill="none" xmlns="http://www.w3.org/2000/svg">
<path d="M18 31.5C25.4558 31.5 31.5 25.4558 31.5 18C31.5 10.5442 25.4558 4.5 18 4.5C10.5442 4.5 4.5 10.5442 4.5 18C4.5 25.4558 10.5442 31.5 18 31.5Z" stroke="#8686C3" stroke-width="2" stroke-miterlimit="10" stroke-linecap="round"/>
<path d="M18 22.5C20.4853 22.5 22.5 20.4853 22.5 18C22.5 15.5147 20.4853 13.5 18 13.5C15.5147 13.5 13.5 15.5147 13.5 18C13.5 20.4853 15.5147 22.5 18 22.5Z" stroke="#8686C3" stroke-width="2" stroke-miterlimit="10"/>
<path d="M15.7501 13.5L12.0236 5.97656M20.2501 13.5L23.9767 5.97656M23.031 17.9866L31.427 17.9958M21.0299 22.017L26.11 28.7009M12.9693 17.9866L4.57324 17.9958M14.9704 22.017L9.89027 28.7009" stroke="#8686C3" stroke-width="2" stroke-miterlimit="10" stroke-linecap="round"/>
</svg>
