<svg width="36" height="36" viewBox="0 0 36 36" fill="none" xmlns="http://www.w3.org/2000/svg">
<path d="M26 3C26.7956 3 27.5587 3.31607 28.1213 3.87868C28.6839 4.44129 29 5.20435 29 6V30C29 30.7956 28.6839 31.5587 28.1213 32.1213C27.5587 32.6839 26.7956 33 26 33H11C10.2044 33 9.44129 32.6839 8.87868 32.1213C8.31607 31.5587 8 30.7956 8 30V6C8 5.20435 8.31607 4.44129 8.87868 3.87868C9.44129 3.31607 10.2044 3 11 3H26ZM26.9 26.082H10.1V30C10.1 30.2387 10.1948 30.4676 10.3636 30.6364C10.5324 30.8052 10.7613 30.9 11 30.9H26C26.2387 30.9 26.4676 30.8052 26.6364 30.6364C26.8052 30.4676 26.9 30.2387 26.9 30V26.082ZM18.5 27C18.8978 27 19.2794 27.158 19.5607 27.4393C19.842 27.7206 20 28.1022 20 28.5C20 28.8978 19.842 29.2794 19.5607 29.5607C19.2794 29.842 18.8978 30 18.5 30C18.1022 30 17.7206 29.842 17.4393 29.5607C17.158 29.2794 17 28.8978 17 28.5C17 28.1022 17.158 27.7206 17.4393 27.4393C17.7206 27.158 18.1022 27 18.5 27ZM26 5.1H11C10.7613 5.1 10.5324 5.19482 10.3636 5.3636C10.1948 5.53239 10.1 5.76131 10.1 6V23.982H26.9V6C26.9 5.76131 26.8052 5.53239 26.6364 5.3636C26.4676 5.19482 26.2387 5.1 26 5.1Z" fill="#8686C3"/>
</svg>
