<svg width="36" height="36" viewBox="0 0 36 36" fill="none" xmlns="http://www.w3.org/2000/svg">
<path d="M18 2.25C17.7463 2.24985 17.5 2.33546 17.3011 2.49291C17.1022 2.65037 16.9623 2.87043 16.9042 3.11738L14.967 11.3546C12.6178 11.0322 10.2267 11.4554 8.13088 12.5646C6.03508 13.6737 4.34036 15.4129 3.28577 17.5366C2.23118 19.6604 1.86993 22.0617 2.25298 24.4017C2.63602 26.7418 3.74403 28.9026 5.42073 30.5793C7.09742 32.2559 9.25818 33.364 11.5982 33.747C13.9383 34.13 16.3396 33.7688 18.4633 32.7142C20.5871 31.6596 22.3262 29.9649 23.4354 27.8691C24.5445 25.7733 24.9678 23.3822 24.6454 21.033L32.8826 19.0958C33.1295 19.0377 33.3496 18.8978 33.5071 18.6989C33.6645 18.5 33.7501 18.2537 33.75 18C33.7452 13.8243 32.0843 9.821 29.1316 6.86833C26.179 3.91566 22.1757 2.25476 18 2.25ZM12.7046 23.2954C12.9155 23.5064 13.2016 23.6249 13.5 23.625C13.5867 23.6251 13.6731 23.6153 13.7576 23.5958L17.9899 22.599C17.9711 23.4798 17.694 24.3357 17.193 25.0603C16.6919 25.7849 15.989 26.3464 15.1715 26.6748C14.354 27.0033 13.4581 27.0843 12.5949 26.9079C11.7318 26.7314 10.9395 26.3052 10.3166 25.6823C9.69361 25.0593 9.26743 24.2671 9.09097 23.4039C8.91451 22.5408 8.99555 21.6448 9.32402 20.8274C9.6525 20.0099 10.2139 19.307 10.9386 18.8059C11.6632 18.3048 12.5191 18.0277 13.3999 18.009L12.4042 22.2424C12.3605 22.4289 12.3651 22.6236 12.4177 22.8079C12.4702 22.9922 12.569 23.16 12.7046 23.2954ZM15.0109 20.9891L17.5657 10.1329C19.7567 10.1682 21.848 11.0543 23.3974 12.6037C24.9468 14.1531 25.8329 16.2444 25.8682 18.4354L15.0109 20.9891ZM22.5 22.5C22.5 24.28 21.9721 26.0201 20.9832 27.5001C19.9943 28.9802 18.5887 30.1337 16.9441 30.8149C15.2996 31.4961 13.49 31.6743 11.7442 31.3271C9.99833 30.9798 8.39469 30.1226 7.13602 28.864C5.87734 27.6053 5.02018 26.0016 4.67291 24.2558C4.32564 22.51 4.50387 20.7004 5.18506 19.0558C5.86625 17.4113 7.0198 16.0057 8.49985 15.0168C9.97989 14.0278 11.7199 13.5 13.5 13.5C13.8172 13.5011 14.1341 13.5187 14.4495 13.5529L13.9275 15.7714C13.7846 15.7624 13.6429 15.75 13.5 15.75C12.165 15.75 10.8599 16.1459 9.74988 16.8876C8.63985 17.6293 7.77468 18.6835 7.26379 19.9169C6.7529 21.1503 6.61923 22.5075 6.87968 23.8169C7.14013 25.1262 7.783 26.329 8.72701 27.273C9.67101 28.217 10.8737 28.8599 12.1831 29.1203C13.4925 29.3808 14.8497 29.2471 16.0831 28.7362C17.3165 28.2253 18.3707 27.3601 19.1124 26.2501C19.8541 25.1401 20.25 23.835 20.25 22.5C20.25 22.3571 20.2376 22.2154 20.2286 22.0725L22.4471 21.5505C22.4812 21.8659 22.4989 22.1828 22.5 22.5ZM28.0912 17.91C27.9295 15.3105 26.8239 12.8595 24.9822 11.0178C23.1405 9.17607 20.6895 8.07045 18.09 7.90875L18.8842 4.52813C22.1506 4.74712 25.2266 6.14362 27.5415 8.45848C29.8564 10.7733 31.2529 13.8494 31.4719 17.1157L28.0912 17.91Z" fill="#8686C3"/>
</svg>
